<svg width="300" height="75" viewBox="0 0 300 75" fill="none" xmlns="http://www.w3.org/2000/svg">
<path d="M62.9117 61.66C60.509 61.66 58.5304 61.342 56.9757 60.706C55.4564 60.07 54.255 59.2927 53.3717 58.374C52.5237 57.4907 51.9054 56.5897 51.5167 55.671C51.1634 54.7877 50.969 54.081 50.9337 53.551C50.8984 53.1977 51.0044 52.8973 51.2517 52.65C51.5344 52.4027 51.8347 52.279 52.1527 52.279H54.6967C55.0147 52.279 55.2797 52.3497 55.4917 52.491C55.7037 52.6323 55.8804 52.9327 56.0217 53.392C56.2337 53.922 56.5517 54.505 56.9757 55.141C57.3997 55.8123 58.0534 56.3777 58.9367 56.837C59.82 57.3317 61.0567 57.579 62.6467 57.579C64.3074 57.579 65.703 57.3493 66.8337 56.89C67.9644 56.466 68.8124 55.6887 69.3777 54.558C69.9784 53.4627 70.2787 51.9433 70.2787 50V46.396C69.4307 47.4913 68.3177 48.41 66.9397 49.152C65.5617 49.8587 63.8304 50.212 61.7457 50.212C59.767 50.212 58.071 49.8763 56.6577 49.205C55.2444 48.4983 54.0784 47.562 53.1597 46.396C52.2764 45.1947 51.605 43.8343 51.1457 42.315C50.7217 40.7957 50.4744 39.2057 50.4037 37.545C50.3684 36.5557 50.3684 35.584 50.4037 34.63C50.4744 32.9693 50.7217 31.3793 51.1457 29.86C51.605 28.3407 52.2764 26.9803 53.1597 25.779C54.0784 24.5777 55.2444 23.6413 56.6577 22.97C58.071 22.2633 59.767 21.91 61.7457 21.91C63.8657 21.91 65.6147 22.3163 66.9927 23.129C68.406 23.9063 69.5544 24.8603 70.4377 25.991V23.712C70.4377 23.3587 70.5437 23.0583 70.7557 22.811C71.003 22.5637 71.3034 22.44 71.6567 22.44H74.0947C74.448 22.44 74.7484 22.5637 74.9957 22.811C75.243 23.0583 75.3667 23.3587 75.3667 23.712V49.417C75.3667 51.7843 74.9604 53.8867 74.1477 55.724C73.3704 57.5613 72.063 59.01 70.2257 60.07C68.4237 61.13 65.9857 61.66 62.9117 61.66ZM62.8057 45.972C64.5724 45.972 65.9857 45.5657 67.0457 44.753C68.141 43.9403 68.936 42.9157 69.4307 41.679C69.9607 40.4423 70.2434 39.188 70.2787 37.916C70.314 37.4213 70.3317 36.8207 70.3317 36.114C70.3317 35.372 70.314 34.7537 70.2787 34.259C70.2434 32.987 69.9607 31.7327 69.4307 30.496C68.936 29.2593 68.141 28.2347 67.0457 27.422C65.9857 26.6093 64.5724 26.203 62.8057 26.203C61.039 26.203 59.6257 26.6093 58.5657 27.422C57.5057 28.1993 56.746 29.2417 56.2867 30.549C55.8274 31.821 55.5624 33.199 55.4917 34.683C55.4564 35.6017 55.4564 36.538 55.4917 37.492C55.5624 38.976 55.8274 40.3717 56.2867 41.679C56.746 42.951 57.5057 43.9933 58.5657 44.806C59.6257 45.5833 61.039 45.972 62.8057 45.972ZM84.5187 50C84.1654 50 83.865 49.894 83.6177 49.682C83.4057 49.4347 83.2997 49.1343 83.2997 48.781V13.589C83.2997 13.2357 83.4057 12.953 83.6177 12.741C83.865 12.4937 84.1654 12.37 84.5187 12.37H87.0097C87.3984 12.37 87.6987 12.4937 87.9107 12.741C88.1227 12.953 88.2287 13.2357 88.2287 13.589V48.781C88.2287 49.1343 88.1227 49.4347 87.9107 49.682C87.6987 49.894 87.3984 50 87.0097 50H84.5187ZM103.819 50.53C102.053 50.53 100.445 50.1767 98.9964 49.47C97.5477 48.7633 96.3817 47.8093 95.4984 46.608C94.6151 45.4067 94.1734 44.0463 94.1734 42.527C94.1734 40.089 95.1627 38.1457 97.1414 36.697C99.1201 35.2483 101.699 34.2943 104.879 33.835L112.776 32.722V31.185C112.776 29.489 112.282 28.164 111.292 27.21C110.338 26.256 108.766 25.779 106.575 25.779C104.985 25.779 103.696 26.097 102.706 26.733C101.752 27.369 101.081 28.1817 100.692 29.171C100.48 29.701 100.109 29.966 99.5794 29.966H97.1944C96.8057 29.966 96.5054 29.86 96.2934 29.648C96.1167 29.4007 96.0284 29.118 96.0284 28.8C96.0284 28.27 96.2227 27.6163 96.6114 26.839C97.0354 26.0617 97.6714 25.302 98.5194 24.56C99.3674 23.818 100.445 23.1997 101.752 22.705C103.095 22.175 104.72 21.91 106.628 21.91C108.748 21.91 110.533 22.1927 111.981 22.758C113.43 23.288 114.561 24.0123 115.373 24.931C116.221 25.8497 116.822 26.892 117.175 28.058C117.564 29.224 117.758 30.4077 117.758 31.609V48.781C117.758 49.1343 117.635 49.4347 117.387 49.682C117.175 49.894 116.893 50 116.539 50H114.101C113.713 50 113.412 49.894 113.2 49.682C112.988 49.4347 112.882 49.1343 112.882 48.781V46.502C112.423 47.138 111.805 47.774 111.027 48.41C110.25 49.0107 109.278 49.523 108.112 49.947C106.946 50.3357 105.515 50.53 103.819 50.53ZM104.932 46.555C106.381 46.555 107.706 46.2547 108.907 45.654C110.109 45.018 111.045 44.0463 111.716 42.739C112.423 41.4317 112.776 39.7887 112.776 37.81V36.326L106.628 37.227C104.12 37.5803 102.229 38.181 100.957 39.029C99.6854 39.8417 99.0494 40.884 99.0494 42.156C99.0494 43.1453 99.3321 43.9757 99.8974 44.647C100.498 45.283 101.24 45.76 102.123 46.078C103.042 46.396 103.978 46.555 104.932 46.555ZM134.918 50.53C132.939 50.53 131.243 50.2827 129.83 49.788C128.416 49.2933 127.268 48.6927 126.385 47.986C125.501 47.2793 124.83 46.5727 124.371 45.866C123.947 45.1593 123.717 44.594 123.682 44.17C123.646 43.7813 123.77 43.481 124.053 43.269C124.335 43.057 124.618 42.951 124.901 42.951H127.233C127.445 42.951 127.604 42.9863 127.71 43.057C127.851 43.0923 128.028 43.2337 128.24 43.481C128.699 43.9757 129.211 44.4703 129.777 44.965C130.342 45.4597 131.031 45.866 131.844 46.184C132.692 46.502 133.734 46.661 134.971 46.661C136.773 46.661 138.257 46.3253 139.423 45.654C140.589 44.9473 141.172 43.9227 141.172 42.58C141.172 41.6967 140.924 40.99 140.43 40.46C139.97 39.93 139.122 39.453 137.886 39.029C136.684 38.605 135.024 38.1633 132.904 37.704C130.784 37.2093 129.105 36.6087 127.869 35.902C126.632 35.16 125.749 34.2943 125.219 33.305C124.689 32.2803 124.424 31.132 124.424 29.86C124.424 28.5527 124.812 27.2983 125.59 26.097C126.367 24.8603 127.498 23.8533 128.982 23.076C130.501 22.2987 132.391 21.91 134.653 21.91C136.49 21.91 138.062 22.1397 139.37 22.599C140.677 23.0583 141.755 23.6413 142.603 24.348C143.451 25.0193 144.087 25.6907 144.511 26.362C144.935 27.0333 145.164 27.5987 145.2 28.058C145.235 28.4113 145.129 28.7117 144.882 28.959C144.634 29.171 144.352 29.277 144.034 29.277H141.808C141.56 29.277 141.348 29.224 141.172 29.118C141.03 29.012 140.889 28.8883 140.748 28.747C140.394 28.2877 139.97 27.8283 139.476 27.369C139.016 26.9097 138.398 26.5387 137.621 26.256C136.879 25.938 135.889 25.779 134.653 25.779C132.886 25.779 131.561 26.15 130.678 26.892C129.794 27.634 129.353 28.5703 129.353 29.701C129.353 30.3723 129.547 30.973 129.936 31.503C130.324 32.033 131.066 32.51 132.162 32.934C133.257 33.358 134.882 33.8173 137.038 34.312C139.37 34.7713 141.207 35.3897 142.55 36.167C143.892 36.9443 144.846 37.8453 145.412 38.87C145.977 39.8947 146.26 41.0783 146.26 42.421C146.26 43.905 145.818 45.2653 144.935 46.502C144.087 47.7387 142.815 48.728 141.119 49.47C139.458 50.1767 137.391 50.53 134.918 50.53ZM163.684 61.66C161.281 61.66 159.303 61.342 157.748 60.706C156.229 60.07 155.027 59.2927 154.144 58.374C153.296 57.4907 152.678 56.5897 152.289 55.671C151.936 54.7877 151.741 54.081 151.706 53.551C151.671 53.1977 151.777 52.8973 152.024 52.65C152.307 52.4027 152.607 52.279 152.925 52.279H155.469C155.787 52.279 156.052 52.3497 156.264 52.491C156.476 52.6323 156.653 52.9327 156.794 53.392C157.006 53.922 157.324 54.505 157.748 55.141C158.172 55.8123 158.826 56.3777 159.709 56.837C160.592 57.3317 161.829 57.579 163.419 57.579C165.08 57.579 166.475 57.3493 167.606 56.89C168.737 56.466 169.585 55.6887 170.15 54.558C170.751 53.4627 171.051 51.9433 171.051 50V46.396C170.203 47.4913 169.09 48.41 167.712 49.152C166.334 49.8587 164.603 50.212 162.518 50.212C160.539 50.212 158.843 49.8763 157.43 49.205C156.017 48.4983 154.851 47.562 153.932 46.396C153.049 45.1947 152.377 43.8343 151.918 42.315C151.494 40.7957 151.247 39.2057 151.176 37.545C151.141 36.5557 151.141 35.584 151.176 34.63C151.247 32.9693 151.494 31.3793 151.918 29.86C152.377 28.3407 153.049 26.9803 153.932 25.779C154.851 24.5777 156.017 23.6413 157.43 22.97C158.843 22.2633 160.539 21.91 162.518 21.91C164.638 21.91 166.387 22.3163 167.765 23.129C169.178 23.9063 170.327 24.8603 171.21 25.991V23.712C171.21 23.3587 171.316 23.0583 171.528 22.811C171.775 22.5637 172.076 22.44 172.429 22.44H174.867C175.22 22.44 175.521 22.5637 175.768 22.811C176.015 23.0583 176.139 23.3587 176.139 23.712V49.417C176.139 51.7843 175.733 53.8867 174.92 55.724C174.143 57.5613 172.835 59.01 170.998 60.07C169.196 61.13 166.758 61.66 163.684 61.66ZM163.578 45.972C165.345 45.972 166.758 45.5657 167.818 44.753C168.913 43.9403 169.708 42.9157 170.203 41.679C170.733 40.4423 171.016 39.188 171.051 37.916C171.086 37.4213 171.104 36.8207 171.104 36.114C171.104 35.372 171.086 34.7537 171.051 34.259C171.016 32.987 170.733 31.7327 170.203 30.496C169.708 29.2593 168.913 28.2347 167.818 27.422C166.758 26.6093 165.345 26.203 163.578 26.203C161.811 26.203 160.398 26.6093 159.338 27.422C158.278 28.1993 157.518 29.2417 157.059 30.549C156.6 31.821 156.335 33.199 156.264 34.683C156.229 35.6017 156.229 36.538 156.264 37.492C156.335 38.976 156.6 40.3717 157.059 41.679C157.518 42.951 158.278 43.9933 159.338 44.806C160.398 45.5833 161.811 45.972 163.578 45.972ZM195.308 50.53C192.623 50.53 190.379 50.0177 188.577 48.993C186.775 47.9683 185.397 46.555 184.443 44.753C183.489 42.9157 182.959 40.831 182.853 38.499C182.818 37.8983 182.8 37.1387 182.8 36.22C182.8 35.266 182.818 34.5063 182.853 33.941C182.959 31.5737 183.489 29.489 184.443 27.687C185.433 25.885 186.828 24.4717 188.63 23.447C190.432 22.4223 192.658 21.91 195.308 21.91C197.958 21.91 200.184 22.4223 201.986 23.447C203.788 24.4717 205.166 25.885 206.12 27.687C207.11 29.489 207.657 31.5737 207.763 33.941C207.799 34.5063 207.816 35.266 207.816 36.22C207.816 37.1387 207.799 37.8983 207.763 38.499C207.657 40.831 207.127 42.9157 206.173 44.753C205.219 46.555 203.841 47.9683 202.039 48.993C200.237 50.0177 197.994 50.53 195.308 50.53ZM195.308 46.449C197.499 46.449 199.248 45.76 200.555 44.382C201.863 42.9687 202.569 40.9193 202.675 38.234C202.711 37.704 202.728 37.0327 202.728 36.22C202.728 35.4073 202.711 34.736 202.675 34.206C202.569 31.5207 201.863 29.489 200.555 28.111C199.248 26.6977 197.499 25.991 195.308 25.991C193.118 25.991 191.351 26.6977 190.008 28.111C188.701 29.489 188.012 31.5207 187.941 34.206C187.906 34.736 187.888 35.4073 187.888 36.22C187.888 37.0327 187.906 37.704 187.941 38.234C188.012 40.9193 188.701 42.9687 190.008 44.382C191.351 45.76 193.118 46.449 195.308 46.449ZM221.042 50C220.583 50 220.229 49.894 219.982 49.682C219.735 49.4347 219.523 49.099 219.346 48.675L211.82 24.083C211.749 23.9063 211.714 23.7297 211.714 23.553C211.714 23.235 211.82 22.97 212.032 22.758C212.279 22.546 212.544 22.44 212.827 22.44H215.159C215.548 22.44 215.848 22.546 216.06 22.758C216.272 22.97 216.413 23.1643 216.484 23.341L222.367 43.322L228.674 23.553C228.745 23.3057 228.886 23.0583 229.098 22.811C229.345 22.5637 229.699 22.44 230.158 22.44H231.96C232.419 22.44 232.773 22.5637 233.02 22.811C233.267 23.0583 233.409 23.3057 233.444 23.553L239.751 43.322L245.634 23.341C245.669 23.1643 245.793 22.97 246.005 22.758C246.217 22.546 246.517 22.44 246.906 22.44H249.238C249.556 22.44 249.821 22.546 250.033 22.758C250.245 22.97 250.351 23.235 250.351 23.553C250.351 23.7297 250.316 23.9063 250.245 24.083L242.719 48.675C242.613 49.099 242.419 49.4347 242.136 49.682C241.889 49.894 241.518 50 241.023 50H238.956C238.497 50 238.108 49.894 237.79 49.682C237.507 49.4347 237.313 49.099 237.207 48.675L231.059 29.701L224.911 48.675C224.77 49.099 224.558 49.4347 224.275 49.682C223.992 49.894 223.604 50 223.109 50H221.042Z" fill="#BF98CD"/>
</svg>
